<?xml version="1.0" encoding="utf-8"?>
<!-- Svg Vector Icons : http://www.onlinewebfonts.com/icon -->
<!DOCTYPE svg PUBLIC "-//W3C//DTD SVG 1.1//EN" "http://www.w3.org/Graphics/SVG/1.1/DTD/svg11.dtd">
<svg version="1.1" xmlns="http://www.w3.org/2000/svg" xmlns:xlink="http://www.w3.org/1999/xlink" x="0px" y="0px" viewBox="0 0 1000 1000" enable-background="new 0 0 1000 1000" xml:space="preserve">
<metadata> Svg Vector Icons : http://www.onlinewebfonts.com/icon </metadata>
<g><path d="M495.5,328c-87.7,0-159-71.3-159-159c0-87.7,71.3-159,159-159c87.7,0,159,71.3,159,159C654.5,256.7,583.1,328,495.5,328z M495.5,34.5C421.3,34.5,361,94.8,361,169s60.3,134.5,134.5,134.5c74.2,0,134.5-60.3,134.5-134.5S569.6,34.5,495.5,34.5z"/><path d="M144.6,504.6h710.8v24.5H144.6V504.6z"/><path d="M486,309.2h24.5v432.1H486V309.2z"/><path d="M282.2,990l226.7-237.4l-17.7-18.1L248.3,988.8L282.2,990z"/><path d="M712.8,988.8L486.1,751.4l17.7-16.9l242.9,254.3H712.8z"/></g>
</svg>