<svg xmlns="http://www.w3.org/2000/svg" xmlns:xlink="http://www.w3.org/1999/xlink" version="1.1" enable-background="new 0 0 1000 1000" xml:space="preserve" width="70.85713958740234" height="95" style=""><rect id="backgroundrect" width="100%" height="100%" x="0" y="0" fill="none" stroke="none" class="" style=""/>
<metadata> Svg Vector Icons : http://www.onlinewebfonts.com/icon </metadata>

<g class="currentLayer" style=""><title>Layer 1</title><g id="svg_1" class=""><path d="M36.31323646381522,36.338159083273084 c-5.270671149877393,0 -9.555720784840426,-4.944466538773326 -9.555720784840426,-11.026229728821303 c0,-6.081763190047978 4.285049634963033,-11.026229728821303 9.555720784840426,-11.026229728821303 c5.270671149877393,0 9.555720784840426,4.944466538773326 9.555720784840426,11.026229728821303 C45.86895724865566,31.393692544499743 41.57789772640657,36.338159083273084 36.31323646381522,36.338159083273084 zM36.31323646381522,15.984709866863966 C31.853900097556355,15.984709866863966 28.229938064060292,20.166355481001894 28.229938064060292,25.31192935445177 s3.623962033496086,9.327219487587833 8.083298399754952,9.327219487587833 c4.459336366258866,0 8.083298399754952,-4.18164561413789 8.083298399754952,-9.327219487587833 S40.76656294278805,15.984709866863966 36.31323646381522,15.984709866863966 z" id="svg_2"/><path d="M15.224541977019609,48.584902291511085 h42.718278829336946 v1.6990102412334724 H15.224541977019609 V48.584902291511085 z" id="svg_3"/><path d="M35.74229717163922,35.03442877571436 h1.4724223850854754 v29.96499286681563 H35.74229717163922 V35.03442877571436 z" id="svg_4"/><path d="M23.49414688264249,82.24610927496934 l13.624414477505182,-16.463062500768412 l-1.0637500496331795,-1.2551871578092175 L21.45679509266708,82.1628924468273 L23.49414688264249,82.24610927496934 z" id="svg_5"/><path d="M49.37272153643048,82.1628924468273 L35.74830705892526,65.69982994605886 l1.0637500496331795,-1.17197032966717 l14.598016217847418,17.63503283043558 H49.37272153643048 z" id="svg_6"/></g></g></svg>