<svg xmlns="http://www.w3.org/2000/svg" xmlns:xlink="http://www.w3.org/1999/xlink" version="1.1" enable-background="new 0 0 1000 1000" xml:space="preserve" width="87" height="119" style=""><rect id="backgroundrect" width="100%" height="100%" x="0" y="0" fill="none" stroke="none"/>
<metadata> Svg Vector Icons : http://www.onlinewebfonts.com/icon </metadata>

<g class="currentLayer" style=""><title>Layer 1</title><g id="svg_1" class=""><path d="M43.64979794069356,43.36731351190123 c-6.267807138089179,0 -11.363527194483229,-5.8798892559418094 -11.363527194483229,-13.112235507640221 c0,-7.232346251698413 5.095720056394051,-13.112235507640221 11.363527194483229,-13.112235507640221 c6.267807138089179,0 11.363527194483229,5.8798892559418094 11.363527194483229,13.112235507640221 C55.01332513517681,37.487424255959404 49.9104582063334,43.36731351190123 43.64979794069356,43.36731351190123 zM43.64979794069356,19.16328130125719 C38.34681858326805,19.16328130125719 34.03725449630369,24.1360347673623 34.03725449630369,30.255078004260994 s4.309564086964395,11.091796703003837 9.612543444389903,11.091796703003837 c5.302979357425508,0 9.612543444389903,-4.972753466105065 9.612543444389903,-11.091796703003837 S48.945630425669734,19.16328130125719 43.64979794069356,19.16328130125719 z" id="svg_2"/><path d="M18.571422515887512,57.93096628328024 h50.79996937005458 v2.0204388046363864 H18.571422515887512 V57.93096628328024 z" id="svg_3"/><path d="M42.970845058004315,41.816935980180276 h1.750983750093328 v35.633943162587045 H42.970845058004315 V41.816935980180276 z" id="svg_4"/><path d="M28.40551900620756,97.96039468207626 l16.201959842700298,-19.57763968247666 l-1.2649964235368123,-1.4926507087313712 L25.982729245874342,97.86143441409408 L28.40551900620756,97.96039468207626 z" id="svg_5"/><path d="M59.17995177315399,97.86143441409408 L42.97799193045365,78.28379473161738 l1.2649964235368123,-1.3936904407491808 l17.359753179496707,20.97133012322584 H59.17995177315399 z" id="svg_6"/></g></g></svg>