<svg xmlns="http://www.w3.org/2000/svg" height="512" viewBox="0 0 383 383.98842" width="512" class=""><g><path d="m368.472656 285.429688v82.558593h-82.5625c-5.277344 0-9.039062-5.039062-7.519531-10.078125 1.601563-5.203125 2.320313-10.722656 2-16.5625-1.117187-22.398437-18.640625-41.679687-40.796875-44.878906-29.683594-4.242188-55.121094 18.71875-55.121094 47.519531 0 4.960938.71875 9.679688 2.078125 14.082031 1.519531 4.957032-2.320312 9.917969-7.519531 9.917969h-82.558594v-93.679687c0-5.921875-6.160156-9.441406-11.519531-6.878906-8.160156 3.839843-17.519531 5.4375-27.441406 4.078124-21.039063-2.960937-38-20.238281-40.640625-41.359374-3.679688-29.199219 19.121094-54.160157 47.601562-54.160157 7.519532 0 14.640625 1.761719 20.960938 4.800781 5.117187 2.558594 11.039062-1.441406 11.039062-7.121093v-77.679688h77.679688c5.917968 0 9.441406-6.160156 6.878906-11.519531-3.839844-8.160156-5.4375-17.519531-4.078125-27.441406 2.957031-21.039063 20.238281-38 41.359375-40.640625 29.199219-3.679688 54.160156 19.121093 54.160156 47.601562 0 7.519531-1.761718 14.640625-4.800781 20.960938-2.558594 5.121093 1.441406 11.039062 7.121094 11.039062h93.679687v82.558594c0 5.28125-5.039062 9.042969-10.082031 7.523437-5.199219-1.601562-10.71875-2.320312-16.558594-2-22.398437 1.117188-41.679687 18.636719-44.878906 40.796876-4.242187 29.679687 18.71875 55.121093 47.519531 55.121093 4.960938 0 9.679688-.71875 14.078125-2.078125 4.960938-1.523437 9.921875 2.316406 9.921875 7.519532zm0 0" fill="#ff7043" data-original="#FF7043" class="active-path" style="fill:#1F8D11" data-old_color="#1F8C11"></path><path d="m368.472656 79.988281h-82.015625c1.335938-5.199219 2.015625-10.550781 2.015625-16 0-18.335937-7.914062-35.832031-21.710937-48-13.769531-12.144531-32.1875-17.808593-50.433594-15.472656-28.519531 3.5625-51.222656 25.890625-55.230469 54.34375-1.167968 8.503906-.683594 17.007813 1.398438 25.136719h-66.023438c-8.832031 0-16 7.167968-16 16v66.015625c-5.199218-1.351563-10.554687-2.023438-16-2.023438-18.335937 0-35.832031 7.914063-48 21.703125-12.136718 13.769532-17.777344 32.160156-15.472656 50.441406 3.558594 28.511719 25.886719 51.222657 54.34375 55.222657 8.496094 1.167969 17.007812.671875 25.136719-1.398438v82.03125c0 8.832031 7.167969 16 16 16h82.558593c7.554688 0 14.738282-3.625 19.226563-9.6875 4.503906-6.089843 5.804687-13.710937 3.582031-20.960937-.910156-2.925782-1.375-6.070313-1.375-9.351563 0-9.28125 4.039063-18.105469 11.070313-24.199219 7.144531-6.175781 16.304687-8.816406 25.761719-7.480468 14.472656 2.085937 26.375 15.199218 27.121093 29.917968.207031 3.832032-.21875 7.425782-1.339843 11.058594-2.167969 7.183594-.804688 15.0625 3.664062 21.078125 4.464844 6.023438 11.632812 9.625 19.160156 9.625h82.5625c8.832032 0 16-7.167969 16-16v-82.558593c0-7.554688-3.625-14.738282-9.6875-19.226563-6.089844-4.496094-13.707031-5.789063-20.960937-3.582031-2.929688.902344-6.082031 1.367187-9.351563 1.367187-9.273437 0-18.097656-4.03125-24.191406-11.070312-6.183594-7.128907-8.839844-16.289063-7.496094-25.761719 2.09375-14.472656 15.199219-26.375 29.910156-27.113281 3.808594-.222657 7.441407.21875 11.066407 1.335937 7.183593 2.167969 15.0625.800782 21.085937-3.664062 6.023438-4.46875 9.625-11.636719 9.625-19.167969v-82.558594c0-8.832031-7.167968-16-16-16zm-16 88.503907c-3.792968-.472657-7.632812-.609376-11.441406-.398438-29.886719 1.496094-55.648438 24.917969-59.917969 54.519531-2.648437 18.550781 2.816407 37.246094 14.992188 51.277344 12.183593 14.042969 29.8125 22.097656 48.367187 22.097656 2.695313 0 5.367188-.167969 8-.488281v56.488281h-56.503906c.480469-3.785156.605469-7.609375.398438-11.441406-1.503907-29.886719-24.925782-55.644531-54.511719-59.917969-18.542969-2.648437-37.238281 2.816406-51.28125 14.984375-14.046875 12.183594-22.101563 29.816407-22.101563 48.375 0 2.695313.167969 5.367188.488282 8h-56.488282v-77.679687c0-8.191406-4.121094-15.679688-11.007812-20.03125-7.050782-4.449219-15.800782-4.921875-23.320313-1.328125-5.710937 2.6875-11.929687 3.589843-18.402343 2.710937-13.894532-1.960937-25.246094-13.519531-27-27.511718-1.175782-9.328126 1.570312-18.304688 7.722656-25.289063 6.09375-6.902344 14.847656-10.871094 24.007812-10.871094 4.863282 0 9.582032 1.082031 13.808594 3.113281 7.320312 3.65625 15.839844 3.253907 22.832031-1.058593 7.109375-4.398438 11.359375-12.015625 11.359375-20.375v-61.679688h61.679688c8.191406 0 15.679687-4.121093 20.03125-11.007812 4.441406-7.046875 4.921875-15.800781 1.328125-23.320313-2.6875-5.710937-3.601563-11.929687-2.710938-18.398437 1.960938-13.898438 13.519531-25.25 27.519531-27 9.351563-1.191407 18.304688 1.566406 25.28125 7.71875 6.910157 6.097656 10.871094 14.847656 10.871094 24.007812 0 4.871094-1.089844 9.59375-3.105468 13.800781-3.664063 7.3125-3.269532 15.839844 1.046874 22.832032 4.402344 7.121094 12.019532 11.367187 20.378907 11.367187h77.679687zm0 0" fill="#012e52" data-original="#012E52" class="" style="fill:#000000" data-old_color="#020202"></path></g> </svg>