<?xml version="1.0" encoding="iso-8859-1"?>
<!-- Generator: Adobe Illustrator 19.0.0, SVG Export Plug-In . SVG Version: 6.00 Build 0)  -->
<svg version="1.1" id="Layer_1" xmlns="http://www.w3.org/2000/svg" xmlns:xlink="http://www.w3.org/1999/xlink" x="0px" y="0px"
	 viewBox="0 0 512 512" style="enable-background:new 0 0 512 512;" xml:space="preserve">
<g>
	<g>
		<g>
			<path d="M256,106.667c29.406,0,53.333-23.927,53.333-53.333S285.406,0,256,0s-53.333,23.927-53.333,53.333
				S226.594,106.667,256,106.667z M256,21.333c17.646,0,32,14.354,32,32c0,17.646-14.354,32-32,32s-32-14.354-32-32
				C224,35.688,238.354,21.333,256,21.333z"/>
			<path d="M480,128H32c-5.896,0-10.667,4.771-10.667,10.667v42.667C21.333,187.229,26.104,192,32,192h138.667v309.333
				c0,5.896,4.771,10.667,10.667,10.667h53.333c5.896,0,10.667-4.771,10.667-10.667v-160h21.333v160
				c0,5.896,4.771,10.667,10.667,10.667h53.333c5.896,0,10.667-4.771,10.667-10.667V192H480c5.896,0,10.667-4.771,10.667-10.667
				v-42.667C490.667,132.771,485.896,128,480,128z M469.333,170.667H330.667c-5.896,0-10.667,4.771-10.667,10.667v309.333h-32v-160
				c0-5.896-4.771-10.667-10.667-10.667h-42.667c-5.896,0-10.667,4.771-10.667,10.667v160h-32V181.333
				c0-5.896-4.771-10.667-10.667-10.667H42.667v-21.333h426.667V170.667z"/>
		</g>
	</g>
</g>
<g>
</g>
<g>
</g>
<g>
</g>
<g>
</g>
<g>
</g>
<g>
</g>
<g>
</g>
<g>
</g>
<g>
</g>
<g>
</g>
<g>
</g>
<g>
</g>
<g>
</g>
<g>
</g>
<g>
</g>
</svg>
