<svg xmlns="http://www.w3.org/2000/svg" xmlns:xlink="http://www.w3.org/1999/xlink" version="1.1" id="Capa_1" x="0px" y="0px" viewBox="0 0 393.92 393.92" style="enable-background:new 0 0 393.92 393.92;" xml:space="preserve" width="512" height="512" class=""><g><polygon style="fill:#F5FDFC" points="217.584,283 217.584,224.12 176.064,224.12 176.064,283 114.384,283 114.384,110.92   176.064,110.92 176.064,166.68 217.584,166.68 217.584,110.92 279.504,110.92 279.504,283 " data-original="#73DDCD" class="" data-old_color="#C9F4EE"></polygon><path style="fill:#FDFCFC" d="M196.944,389.48C90.62,389.628,4.304,303.552,4.16,197.224S90.088,4.584,196.416,4.44  C302.74,4.292,389.056,90.368,389.2,196.696c0.068,51.084-20.168,100.104-56.256,136.264  C296.972,369.2,248.004,389.552,196.944,389.48z M196.944,39.2c-87.128,0-157.76,70.632-157.76,157.76s70.632,157.76,157.76,157.76  s157.76-70.632,157.76-157.76C354.592,109.876,284.028,39.312,196.944,39.2z" data-original="#7A5E47" class="" data-old_color="#F9F9F9"></path><path style="fill:#FFFFFF;" d="M196.944,359.12c-89.56-0.016-162.148-72.632-162.128-162.192S107.448,34.784,197.008,34.8  s162.148,72.632,162.128,162.192c-0.008,43.004-17.1,84.244-47.512,114.648C281.272,342.148,239.976,359.244,196.944,359.12z   M221.984,219.72v57.24c0.04,0.976,0.824,1.76,1.8,1.8h49.52c0.48,0.008,0.944-0.18,1.28-0.52c0.332-0.344,0.52-0.8,0.52-1.28v-160  c0-0.996-0.804-1.8-1.8-1.8h-49.48c-0.984,0.02-1.78,0.816-1.8,1.8v54.12h-50.36v-54.12c0-0.996-0.804-1.8-1.8-1.8l0,0h-49.28  c-0.984,0.02-1.78,0.816-1.8,1.8v160c0.04,0.976,0.824,1.76,1.8,1.8h49.28c0.48,0.004,0.94-0.184,1.28-0.52  c0.332-0.344,0.52-0.8,0.52-1.28v-57.24H221.984z" data-original="#FFFFFF" class=""></path><g>
	<path style="fill:#000000" d="M196.944,0C88.164,0.008-0.008,88.2,0,196.976S88.2,393.928,196.976,393.92   s196.952-88.2,196.944-196.976c-0.004-52.236-20.76-102.328-57.696-139.264C299.284,20.744,249.184-0.004,196.944,0z M327.984,328   c-72.372,72.372-189.712,72.372-262.084-0.004s-72.368-189.708,0.004-262.08S255.616-6.456,327.988,65.92   c34.756,34.756,54.28,81.892,54.276,131.044c0.012,49.144-19.5,96.28-54.24,131.04h-0.04V328z" data-original="#2B1B19" class="active-path" data-old_color="#060000"></path>
	<path style="fill:#000000" d="M273.664,106.92h-49.72c-2.384-0.004-4.688,0.864-6.48,2.44l-0.48,0.44   c-1.896,1.896-2.936,4.48-2.88,7.16v45.92h-34.48v-45.92c0.088-5.432-4.244-9.912-9.676-10c0,0,0,0-0.004,0h-49.64   c-2.384-0.004-4.688,0.864-6.48,2.44l-0.48,0.44c-1.884,1.884-2.924,4.456-2.88,7.12v160c0.004,2.596,1.04,5.088,2.88,6.92l0,0   c1.844,1.848,4.348,2.884,6.96,2.88h49.48c2.612,0,5.112-1.036,6.96-2.88l0,0c1.836-1.836,2.872-4.324,2.88-6.92V227.8h34.48v49.16   c-0.032,2.632,0.988,5.168,2.84,7.04l0,0c1.848,1.844,4.348,2.88,6.96,2.88h49.76c2.612,0.004,5.116-1.032,6.96-2.88l0,0   c1.864-1.864,2.904-4.404,2.88-7.04v-160c0-5.436-4.404-9.84-9.84-9.84L273.664,106.92L273.664,106.92z M271.864,275.28h-46.12V222   c0-3.208-2.592-5.816-5.8-5.84h-46.12c-3.224,0-5.84,2.616-5.84,5.84v53.28h-45.88V118.56h45.88v50.16   c0,3.224,2.616,5.84,5.84,5.84h46.12c3.208-0.02,5.8-2.632,5.8-5.84v-50.16h46.12L271.864,275.28L271.864,275.28z" data-original="#2B1B19" class="active-path" data-old_color="#060000"></path>
	<path style="fill:#000000" d="M196.944,30.48c-91.924,0.056-166.396,74.616-166.34,166.54s74.616,166.396,166.54,166.34   s166.396-74.616,166.34-166.54c-0.028-44.124-17.572-86.428-48.78-117.62C283.468,47.98,241.108,30.452,196.944,30.48z    M306.424,306.48c-60.472,60.464-158.512,60.456-218.976-0.016S26.992,147.952,87.464,87.488s158.512-60.456,218.976,0.016   c29.028,29.032,45.336,68.404,45.344,109.456c0.016,41.072-16.284,80.468-45.32,109.52H306.424z" data-original="#2B1B19" class="active-path" data-old_color="#060000"></path>
</g></g> </svg>